<svg xmlns="http://www.w3.org/2000/svg" width="554" height="550">
  <path fill="#2E3194" d="M264.101 1.23q3.374-.167 6.752-.251t6.755-.084q3.379 0 6.756.082 3.377.083 6.752.25t6.743.415q3.369.25 6.731.582 3.362.333 6.715.749 3.353.415 6.694.913 3.342.499 6.67 1.079t6.641 1.243 6.608 1.407 6.572 1.569 6.53 1.73q3.255.907 6.486 1.893 3.232.986 6.438 2.05 3.206 1.066 6.385 2.21 3.178 1.145 6.328 2.367t6.268 2.522 6.204 2.676 6.136 2.828 6.064 2.979 5.989 3.128 5.91 3.274 5.827 3.42 5.741 3.562 5.651 3.703 5.559 3.841q2.755 1.955 5.462 3.977 2.706 2.023 5.361 4.111 2.656 2.09 5.259 4.243t5.153 4.37q2.549 2.217 5.043 4.497c52.269 47.619 85.978 115.901 89.194 186.856q.186 3.389.288 6.782t.119 6.788q.017 3.394-.05 6.788-.068 3.394-.22 6.785t-.388 6.777-.558 6.766q-.321 3.379-.726 6.749-.405 3.371-.893 6.73-.489 3.359-1.062 6.705-.572 3.345-1.228 6.676-.655 3.331-1.394 6.644t-1.559 6.607q-.82 3.293-1.723 6.566t-1.886 6.521-2.049 6.472q-1.064 3.223-2.209 6.419-1.144 3.195-2.368 6.361t-2.526 6.301q-1.303 3.135-2.683 6.236t-2.837 6.167-2.99 6.095-3.14 6.018-3.29 5.937-3.437 5.854-3.581 5.767-3.725 5.675q-1.897 2.815-3.864 5.581t-4.003 5.483-4.137 5.381q-2.103 2.665-4.271 5.277t-4.401 5.168-4.528 5.057q-2.273 2.49-4.606 4.923-2.332 2.434-4.725 4.809t-4.841 4.691q-2.45 2.316-4.956 4.571-2.505 2.255-5.066 4.447t-5.174 4.322-5.278 4.194-5.38 4.062-5.478 3.929-5.573 3.794-5.665 3.655-5.752 3.515q-2.898 1.722-5.837 3.372-2.94 1.651-5.919 3.228t-5.995 3.082-6.07 2.934-6.14 2.783-6.206 2.632-6.269 2.479-6.328 2.324-6.384 2.167-6.434 2.01q-3.23.966-6.482 1.852t-6.526 1.692q-3.273.805-6.565 1.531t-6.601 1.369-6.632 1.206q-3.324.563-6.66 1.043-3.337.481-6.684.88-3.347.398-6.703.714-3.356.317-6.719.55t-6.73.385c-10.881.302-21.818.421-32.682-.393q-2.871-.211-5.736-.482-2.866-.271-5.725-.603t-5.71-.722-5.695-.843q-2.843-.45-5.675-.961-2.833-.511-5.654-1.081-2.822-.57-5.63-1.199-2.809-.629-5.604-1.317t-5.575-1.435-5.543-1.551-5.51-1.667-5.473-1.783-5.435-1.897q-2.707-.977-5.394-2.01-2.686-1.034-5.35-2.124t-5.304-2.236-5.257-2.346-5.206-2.456-5.153-2.565-5.099-2.673-5.041-2.779-4.982-2.884q-2.475-1.469-4.92-2.989t-4.856-3.091q-2.412-1.571-4.79-3.192t-4.722-3.292-4.652-3.391-4.58-3.487-4.506-3.583-4.43-3.677-4.35-3.769-4.272-3.859q-2.03-1.862-4.024-3.766-1.993-1.903-3.947-3.846t-3.869-3.925-3.788-4.002-3.707-4.078-3.624-4.152q-1.792-2.094-3.54-4.224t-3.454-4.295-3.366-4.364-3.277-4.431-3.187-4.496-3.096-4.56-3.004-4.621-2.909-4.68-2.814-4.739-2.718-4.794-2.621-4.849q-1.286-2.437-2.522-4.9-1.237-2.463-2.423-4.95-1.187-2.487-2.323-4.998t-2.221-5.044-2.119-5.088q-1.034-2.554-2.016-5.129t-1.912-5.169q-.93-2.595-1.807-5.207t-1.701-5.242-1.596-5.276-1.489-5.306-1.381-5.336q-.664-2.674-1.273-5.362-.61-2.687-1.165-5.387t-1.056-5.409q-3.198-17.223-4.038-34.72c-.437-11.41-.585-23.034.265-34.43q.211-2.87.483-5.734.272-2.865.605-5.723t.725-5.709q.392-2.85.845-5.692t.965-5.673 1.085-5.651 1.204-5.627 1.323-5.601 1.44-5.571 1.559-5.54q.808-2.761 1.674-5.505.867-2.744 1.79-5.469.925-2.725 1.907-5.43.981-2.705 2.02-5.388 1.038-2.684 2.133-5.345t2.245-5.298 2.357-5.25q1.207-2.612 2.468-5.198t2.576-5.146 2.685-5.09 2.792-5.032 2.897-4.971 3.002-4.91q1.526-2.439 3.104-4.845t3.206-4.778q1.629-2.373 3.307-4.71t3.405-4.639 3.503-4.565q1.775-2.265 3.598-4.491 1.822-2.227 3.692-4.414t3.784-4.335q1.915-2.147 3.875-4.253 2.258-2.448 4.575-4.84 2.316-2.392 4.69-4.727t4.805-4.611 4.915-4.493 5.024-4.373 5.128-4.248 5.23-4.122 5.329-3.994 5.424-3.863q2.736-1.898 5.517-3.73 2.781-1.83 5.606-3.593t5.692-3.457 5.775-3.317 5.853-3.176 5.929-3.032 6.001-2.886 6.069-2.74 6.135-2.591 6.195-2.441q3.113-1.183 6.254-2.29t6.307-2.136 6.357-1.983 6.404-1.827 6.446-1.67 6.485-1.514q3.251-.717 6.519-1.355 3.269-.637 6.551-1.195t6.578-1.036 6.602-.875 6.62-.715 6.636-.553 6.648-.391"/>
  <path fill="#FEFEFE" d="M265.004 8.792c13.138-.39 26.153-.19 39.234 1.155q2.675.274 5.345.602t5.331.709 5.316.816 5.298.924q2.645.488 5.279 1.03 2.634.541 5.257 1.136t5.233 1.242 5.207 1.346 5.179 1.452 5.148 1.556 5.116 1.659q2.55.855 5.082 1.761 2.532.907 5.045 1.864t5.007 1.965 4.966 2.066 4.923 2.165 4.879 2.264 4.832 2.362 4.783 2.458 4.734 2.555q2.353 1.3 4.68 2.65 2.327 1.347 4.626 2.742t4.571 2.836q2.27 1.441 4.512 2.927 2.241 1.487 4.452 3.018t4.39 3.107q2.18 1.575 4.327 3.194 2.148 1.62 4.262 3.281 2.115 1.662 4.195 3.367 2.081 1.704 4.126 3.45t4.056 3.532q2.01 1.787 3.984 3.614 2.093 1.926 4.145 3.897t4.061 3.986 3.975 4.07q1.965 2.058 3.886 4.156 1.921 2.099 3.797 4.238t3.705 4.318 3.612 4.396q1.783 2.218 3.518 4.473t3.42 4.547q1.686 2.291 3.323 4.619 1.636 2.327 3.223 4.689t3.121 4.757q1.536 2.395 3.02 4.822t2.915 4.886 2.811 4.948q1.378 2.489 2.703 5.006 1.326 2.518 2.596 5.063t2.488 5.118q1.216 2.572 2.377 5.17t2.266 5.219 2.153 5.267q1.049 2.644 2.041 5.311.991 2.667 1.926 5.354t1.811 5.394 1.696 5.432q.819 2.724 1.579 5.466t1.462 5.499q.701 2.758 1.343 5.529t1.225 5.557q.583 2.785 1.106 5.581t.986 5.604.866 5.624c1.559 10.817 2.221 21.767 2.621 32.683.247 6.756-.226 13.519-.6 20.262q-.173 2.843-.407 5.682t-.528 5.673-.651 5.659q-.356 2.827-.773 5.645-.416 2.818-.894 5.626-.477 2.808-1.015 5.606t-1.135 5.582q-.598 2.786-1.255 5.557-.658 2.772-1.375 5.529t-1.494 5.497q-.776 2.741-1.611 5.465t-1.729 5.428-1.845 5.39-1.961 5.348q-1.009 2.664-2.076 5.306-1.066 2.641-2.189 5.259t-2.303 5.211q-1.179 2.593-2.414 5.16-1.234 2.567-2.524 5.107t-2.634 5.051-2.742 4.994-2.849 4.933-2.954 4.871q-1.504 2.419-3.059 4.806t-3.161 4.739-3.263 4.669-3.363 4.599-3.461 4.525-3.557 4.449-3.653 4.372-3.746 4.292-3.837 4.21c-47.26 50.722-114.221 82.98-183.817 85.483q-3.153.14-6.307.206t-6.311.057-6.31-.093q-3.155-.084-6.306-.242-3.152-.159-6.299-.392t-6.288-.54-6.273-.689-6.255-.837-6.233-.985-6.209-1.133q-3.097-.603-6.18-1.279t-6.148-1.424q-3.065-.749-6.112-1.57t-6.074-1.715q-3.026-.893-6.031-1.857-3.005-.965-5.986-2t-5.936-2.141-5.885-2.281q-2.928-1.175-5.828-2.419t-5.77-2.557-5.708-2.692-5.642-2.827q-2.805-1.447-5.574-2.96-2.77-1.513-5.503-3.091t-5.427-3.22q-2.695-1.642-5.35-3.348t-5.269-3.473-5.186-3.597q-2.571-1.83-5.099-3.719-2.527-1.89-5.009-3.839t-4.918-3.956-4.822-4.071q-2.511-2.156-4.968-4.373t-4.858-4.496-4.745-4.615-4.628-4.732q-2.285-2.394-4.509-4.845t-4.387-4.957-4.262-5.063q-2.1-2.559-4.135-5.169t-4.005-5.27-3.873-5.368-3.738-5.462-3.6-5.554-3.462-5.642-3.32-5.726-3.176-5.807-3.031-5.885-2.884-5.958q-1.404-2.997-2.734-6.028t-2.583-6.094-2.432-6.156q-1.177-3.094-2.276-6.216-1.1-3.121-2.122-6.269t-1.965-6.321-1.807-6.368-1.648-6.411-1.488-6.45-1.327-6.484-1.165-6.516-1.003-6.543-.84-6.566-.675-6.585-.512-6.599C5.882 221.976 30.67 152.668 75.783 100.573q1.714-1.97 3.466-3.905 1.752-1.936 3.541-3.838 1.79-1.901 3.616-3.767 1.826-1.867 3.688-3.697t3.759-3.624 3.83-3.55q1.93-1.757 3.896-3.475t3.965-3.399 4.029-3.32 4.094-3.242 4.156-3.162 4.217-3.08q2.123-1.519 4.275-2.997t4.334-2.913q2.18-1.436 4.389-2.828 2.208-1.393 4.443-2.743t4.496-2.656 4.547-2.567 4.595-2.478q2.31-1.217 4.644-2.389t4.688-2.298q2.356-1.126 4.733-2.206t4.775-2.113q2.397-1.034 4.815-2.02 2.417-.987 4.853-1.926 2.436-.94 4.89-1.831 2.454-.892 4.924-1.736t4.958-1.64q2.486-.795 4.988-1.542t5.017-1.446q2.516-.698 5.045-1.347t5.07-1.249c16.057-3.723 32.076-5.61 48.485-6.797"/>
  <path fill="#2E3194" d="M362.891 500.512c.883-.063 1.868-.185 2.742-.023 1.384.256 2.733 1.178 3.519 2.337q.154.229.284.473t.235.499.183.52.129.536.074.547.018.551-.038.55-.094.544c-.464 2.113-1.729 3.086-3.484 4.177-.896.135-1.809.255-2.704.052-1.47-.335-2.797-1.183-3.603-2.471q-.144-.231-.264-.474-.12-.244-.216-.498t-.166-.517q-.07-.262-.114-.531-.044-.268-.061-.539t-.007-.543.046-.54q.036-.27.099-.534c.472-2.044 1.706-3.069 3.422-4.116m-110.504 14.621c1.373-.084 2.773-.169 4.045.459 1.904.941 2.488 2.925 3.083 4.796a13.4 13.4 0 0 1-.533 1.832c-.708 1.859-1.854 2.809-3.639 3.596-1.099.177-2.267.197-3.325-.19q-.255-.093-.5-.211-.244-.118-.476-.26t-.448-.306-.414-.351q-.199-.185-.378-.389-.178-.205-.336-.426-.157-.221-.292-.457t-.244-.485q-.11-.247-.195-.504t-.145-.521q-.059-.264-.092-.533t-.04-.54.014-.54.067-.537q.047-.266.12-.527t.171-.513c.684-1.749 1.914-2.624 3.557-3.393m57.056-1.599c1.042.073 1.985.303 2.889.842 1.291.77 2.213 1.932 2.571 3.405q.072.295.112.595.041.301.05.604t-.014.605-.077.601q-.055.299-.14.59t-.2.571-.26.548-.315.517c-1.085 1.571-2.474 2.073-4.28 2.431-.865-.191-1.756-.364-2.531-.81-1.41-.81-2.468-2.217-2.792-3.817q-.056-.268-.086-.54t-.031-.546q-.003-.274.023-.546.025-.273.077-.542.052-.268.131-.53.079-.263.184-.515.104-.253.234-.495.129-.241.282-.468c1.022-1.519 2.452-2.105 4.173-2.5m-112.345-10.871c.709-.058 1.378-.074 2.081.064 2.054.401 3.141 1.642 4.231 3.332.157 1.242.331 2.584-.025 3.806-.567 1.944-2.057 2.866-3.767 3.736-.808.142-1.72.183-2.523-.003-1.469-.341-2.758-1.201-3.5-2.532-.791-1.421-.873-3.12-.342-4.642.708-2.029 1.989-2.854 3.845-3.761M319.59 24.244q3.758.676 7.531 1.269c-1.748 11.8-4.05 23.612-6.202 35.348-2.502-.236-4.92-.652-7.371-1.199 1.22-5.701 2.035-11.545 3.02-17.295 1.031-6.024 2.243-12.061 3.022-18.123m209.149 232.64c.548-.135.273-.163.814.16.491 2.374.359 5.052.443 7.48-3.485.095-7.023.538-10.501.83-8.04.676-16.078 1.469-24.123 2.063l-.29.052c-.906-1.047-.811-5.826-.931-7.37 3.854-.759 7.975-.895 11.89-1.252zm-26.575-97.834c1.474 1.862 2.633 4.785 3.847 6.871-10.647 5.446-21.129 11.244-31.72 16.802-1.361-2.132-2.458-4.55-3.648-6.789 10.393-5.784 21.3-10.825 31.521-16.884M110.312 84.9c1.335.407 3.567 3.538 4.685 4.698-2.625 2.312-5.135 4.731-7.834 6.96 6.515 7.327 13.489 14.254 19.924 21.651l-5.506 5.069c-2.601-2.475-4.998-5.217-7.442-7.849-4.094-4.304-8.973-8.671-12.413-13.465-2.491 2.504-5.171 4.885-7.834 7.206a114 114 0 0 0-4.482-4.75c3.328-3.458 7.012-6.672 10.51-9.962 3.405-3.2 6.745-6.64 10.392-9.558m259.381-46.899c8.5 4.244 17.415 8.004 26.133 11.788a146 146 0 0 0-2.716 6.375c-3.231-1.38-6.409-2.908-9.6-4.38l-7.485 17.122c-1.485 3.195-2.848 6.46-4.268 9.685-2.256-1.132-4.727-2.319-7.135-3.072l11.89-27.044c-3.222-.97-6.399-2.573-9.488-3.921.778-2.218 1.763-4.384 2.669-6.553M222.717 484.944c6.491 1.199 12.902 2.774 19.386 4.015-1.073 5.895-4.559 25.52-7.588 29.485-1.611 2.107-3.872 3.206-6.481 3.471-4.095.417-8-.498-11.227-3.091a10 10 0 0 1-.493-.491c-2.869-3.066-2.925-6.044-2.826-9.998 2.275.311 4.547.866 6.799 1.326-.011 1.183-.019 2.61.623 3.651.715 1.158 2.26 2.078 3.56 2.388 1.079.257 2.146.082 3.074-.529.957-.63 1.666-1.664 2.13-2.695 1.757-3.909 3.431-14.451 4.223-19.103-4.046-.557-8.136-1.643-12.149-2.462.397-1.985.712-3.959.969-5.967M399.48 52.355q4.036 2.372 8.035 4.805-.866 8.385-1.613 16.781 6.783-4.65 13.69-9.114 3.661 2.386 7.371 4.695c-4.579 2.522-9.048 5.303-13.554 7.957-2.253 1.27-4.731 2.473-6.782 4.048-3.671 2.817-6.161 8.351-8.557 12.292-2.071-1.447-4.209-2.805-6.322-4.188 2.048-3.502 4.873-6.879 6.436-10.608 1.584-3.78 1.165-21.458 1.296-26.668m76.768 65.52c1.972 2.372 3.69 5.025 5.48 7.538l9.215 12.889q-2.673 1.898-5.278 3.89c-3.4-4.757-6.99-9.477-10.121-14.413-1.921 1.657-4.156 3.063-6.227 4.534 3.169 4.078 6.054 8.403 9.079 12.591-1.124.828-2.311 1.583-3.47 2.362l-2.07 1.452c-2.632-4.368-6.003-8.468-8.996-12.608-3.636 3.304-8.037 6.163-12.013 9.073l-4.424-6.208c3.382-2.081 6.594-4.743 9.796-7.104zM332.893 483.771c2.391-.398 5.17-.129 7.342.951 3.722 1.85 5.417 5.314 6.751 9.012-2.181.849-4.553 1.274-6.785 2.027q-.172-.429-.36-.852c-1.23-2.752-2.495-3.827-5.254-4.871-1.295.189-2.568.369-3.757.954-1.345.661-2.229 1.7-2.647 3.139-1.097 3.785 1.415 13.434 3.405 16.833 1.206 2.059 2.768 2.522 4.93 3.129q.943-.207 1.873-.464c2.261-.638 3.152-1.729 4.292-3.713.096-1.261-.112-2.454.081-3.72.531-.713.813-.654 1.653-.868q2.626-.646 5.232-1.37c.272 3.411.576 6.737-1.101 9.885-1.724 3.236-5.126 5.028-8.548 5.96-3.446.939-7.144.883-10.289-.973-5.073-2.992-6.566-8.673-7.857-14.007-1.227-5.071-2.358-10.289.678-15.023 2.404-3.751 6.251-5.121 10.361-6.029m53.792-21.42c1.002.387 2.544 4.18 3.126 5.309-4.495 2.344-8.983 4.815-13.652 6.799 1.27 2.661 2.779 5.197 4.013 7.875 4.191-2.373 8.539-4.493 12.818-6.704.688 1.721 1.538 3.45 2.575 4.986-4.209 2.392-8.599 4.543-12.993 6.575 1.535 2.571 2.877 5.308 4.284 7.953q6.345-3.133 12.602-6.44l.622-.29c1.235.627 2.383 3.899 3.008 5.247-6.361 3.753-13.316 6.595-19.758 10.244-5.93-10.17-10.277-21.322-16.293-31.458 6.511-3.436 13.17-6.594 19.648-10.096m-212.262 3.34 6.235 2.938c-2.601 4.835-4.531 10.025-7.247 14.792 6.315-2.669 12.463-6.34 18.56-9.5q3.396 1.629 6.773 3.298c-5.855 2.947-11.747 6.254-17.801 8.742 1.354 4.977 1.77 12.017 2.483 17.293.244 2.056.519 4.087.899 6.123-2.566-1.151-5.11-2.254-7.516-3.722-.783-5.596-1.855-11.452-2.188-17.083-1.565.644-3.06 1.435-4.565 2.205l-4.544 9.746q-3.088-1.481-6.236-2.829c2.433-4.366 4.429-9.044 6.56-13.565q4.415-9.162 8.587-18.438m104.893 25.123c3.1-.549 6.972.211 9.603 1.899 3.014 1.933 4.24 4.709 4.9 8.083-2.178.232-4.366.2-6.553.205-.406-.922-.844-2.015-1.584-2.716-1.388-1.314-3.609-1.999-5.493-1.831-1.487.133-2.788.77-3.705 1.961-.736.955-1.136 1.944-.895 3.162.883 4.476 11.144 4.406 14.809 6.738 2.117 1.346 3.741 3.623 4.211 6.095q.097.516.141 1.039.045.523.036 1.048t-.071 1.047q-.062.521-.177 1.034-.115.512-.281 1.01t-.381.977-.479.933q-.263.455-.571.88c-2.433 3.355-5.922 4.478-9.811 5.115-3.904.169-8.14-.272-11.285-2.841-2.457-2.007-3.284-4.562-3.55-7.603 2.179-.06 4.365-.021 6.544-.017l1.043 2.633q.531.406 1.086.78c1.779 1.177 4.329 1.491 6.388 1.021 1.496-.341 3.228-1.176 4.009-2.566.469-.834.605-1.995.338-2.914-1.056-3.629-10.997-4.189-14.573-6.364-2.085-1.268-3.639-3.171-4.197-5.574q-.122-.527-.19-1.063-.069-.537-.083-1.078-.014-.54.027-1.08.04-.539.135-1.071.094-.533.242-1.053.148-.521.347-1.023.199-.503.448-.983t.545-.933c2.154-3.326 5.372-4.254 9.027-4.95M47.715 270.449q.564.043 1.125.117c3.812.519 7.137 2.303 9.44 5.44 2.795 3.808 3.628 9.292 2.935 13.897-.613 4.065-2.707 7.622-6.049 10.051-4.725 3.434-11.586 4.15-17.22 3.262-4.396-.693-8.396-2.672-11.024-6.378-3.502-4.938-3.233-11.227-2.26-16.921q.31-1.084.797-2.101.486-1.017 1.135-1.939c2.474-3.443 6.008-4.456 9.972-5.081-.103 2.469.117 4.933.285 7.395-2.208.733-4.391 1.629-5.428 3.87-1.044 2.254-.902 5.517-.028 7.8.853 2.227 2.536 3.838 4.72 4.753 3.721 1.558 9.042 1.509 12.718-.12 2.352-1.042 4.416-2.905 5.3-5.366.807-2.249.543-4.665-.543-6.772-1.328-2.577-3.315-3.57-5.968-4.366zM290.32 20.352c1.415-.175 2.966-.17 4.392-.134 4.271.11 8.493 1.277 11.478 4.53 2.518 2.745 3.287 6.067 3.144 9.678-2.367-.123-4.742-.483-7.109-.68-.389-1.314-.794-2.624-1.62-3.738-1.315-1.776-3.216-2.57-5.353-2.892-2.353-.355-4.71.115-6.622 1.573-2.741 2.093-3.892 5.577-4.236 8.89-.365 3.517.009 7.705 2.408 10.481 1.669 1.931 4.072 2.888 6.596 2.962 2.57.076 4.484-.907 6.266-2.678.694-1.086 1.166-2.223 1.659-3.407q3.746.342 7.501.57c-.463 2.422-1.139 4.602-2.565 6.633q-.364.522-.777 1.005-.413.484-.871.925-.459.441-.959.835t-1.035.737-1.103.632q-.566.289-1.159.52-.592.233-1.204.405-.613.173-1.239.285c-4.94.91-10.631.511-14.826-2.482-3.561-2.541-5.583-6.502-6.325-10.738-1.009-5.76.107-13.463 3.638-18.256 2.519-3.419 5.857-4.99 9.921-5.656m-207.85 91.76c.303.137.18.068.51.288 3.392 2.258 6.64 4.791 9.927 7.202 3.865 2.836 8.489 5.666 11.579 9.362 1.321 1.581 2.134 3.076 2.523 5.111.769 4.033-.771 8.193-3.063 11.483-2.267 3.252-5.723 6.126-9.745 6.718-1.914.282-3.792-.002-5.583-.714-5.125-2.038-14.95-10.221-19.891-13.806-.996-.769-2.059-1.461-3.095-2.175 1.503-2.181 3.012-4.352 4.413-6.601 2.897 2.562 18.18 13.77 21.186 15.092 1.416.623 2.595.815 4.031.164 2.498-1.132 3.999-4.106 4.955-6.539-.308-1.143-.57-2.225-1.333-3.163-3.076-3.78-16.441-12.872-21.054-16.083 1.639-2.029 3.113-4.223 4.64-6.339m254.468-84.156c2.953.22 6.213 1.427 9.082 2.216l15.934 4.378-1.526 6.357c-5.986-1.408-11.936-3.21-17.877-4.806-.468 2.35-1.261 4.702-1.905 7.013 5.434.998 11.054 2.889 16.412 4.316-.536 2.103-1.167 4.184-1.769 6.269-5.294-1.71-10.759-3.027-16.129-4.486-.793 2.815-1.532 5.658-2.532 8.408 6.332 1.51 12.617 3.36 18.9 5.073-.796 2.206-1.254 4.633-1.871 6.903-3.808-1.416-8.002-2.27-11.932-3.324-4.607-1.235-9.267-2.7-13.939-3.634 2.469-11.64 6.163-23.152 9.152-34.683M135.391 64.048c1.144.282 3.528 4.028 4.342 5.084-5.124 3.387-9.796 7.747-14.749 11.425 1.511 1.834 3.056 3.647 4.441 5.579 4.274-3.764 9.138-6.838 13.367-10.65 1.257 1.833 2.674 3.563 4.041 5.315-4.427 3.56-9.007 6.93-13.445 10.48 1.875 2.099 3.678 4.632 5.163 7.023l13.575-10.653 1.79-1.44 4.242 5.504c-7.07 5.415-14.327 10.844-21.075 16.649-7.836-8.983-14.145-19.382-22.088-28.28 2.442-1.623 4.743-3.624 7.05-5.443zm77.587-35.555c2.364-.135 4.436-.22 6.685.71 3.419 1.413 5.189 4.308 6.465 7.6-2.165.867-4.566 1.398-6.808 2.047-.517-.793-1.062-1.63-1.732-2.304-1.174-1.182-3.052-1.658-4.676-1.565-2.002.116-4.365.936-5.663 2.544-.642.795-1.009 1.788-.802 2.815 1.113 5.535 14.645.884 20.518 4.484 2.262 1.388 3.745 3.642 4.269 6.228.623 3.068.027 6.317-1.813 8.87-3.132 4.343-8.334 5.53-13.282 6.419-2.515.016-4.732-.027-7.096-1.073-3.393-1.501-5.096-4.308-6.337-7.633l7.231-2.275c.625 1.136 1.194 2.29 2.276 3.067 1.701 1.22 3.979 1.254 5.95.851 1.998-.408 4.22-1.361 5.36-3.146.44-.69.735-1.629.489-2.444-1.731-5.728-15.36-1.149-20.577-4.375-2.171-1.342-3.556-4.128-4.102-6.548-.602-2.663-.366-5.558 1.193-7.86 2.727-4.03 7.949-5.484 12.452-6.412m282.456 242.769c3.789 1.103 7.603 3.13 11.232 4.728q11.706 5.156 23.336 10.481-.228 4.409-.326 8.823c-5.085 1.539-10.265 2.823-15.38 4.265l-21.114 5.995c.117-2.68.183-5.373.492-8.039l7.51-1.815c.189-4.474.168-9.119 1-13.529-2.373-.682-4.728-1.764-7.036-2.655.117-2.749.268-5.502.286-8.254"/>
  <path fill="#FEFEFE" d="M508.191 284.643q6.95 2.955 13.966 5.748l-3.419.868c-3.682.829-7.341 1.827-11.002 2.747.001-3.082-.106-6.33.455-9.363"/>
  <path fill="#2E3194" d="M62.217 148.041c3.412-.255 6.649.655 9.494 2.525 2.492 1.639 4.51 3.849 5.076 6.863.93 4.948-2.914 11.219-5.585 15.233 3.843 1.824 7.49 4.089 11.303 5.985l-3.679 6.864-3.805-1.969c-9.246-4.842-18.339-10.022-27.636-14.753 2.788-5.087 4.902-10.648 8.05-15.527 1.684-2.61 3.663-4.568 6.782-5.221"/>
  <path fill="#FEFEFE" d="M62.757 155.527c.281-.004.562-.013.843.004 1.64.097 3.812.842 4.863 2.167.764.964.976 2.146.832 3.347-.235 1.959-2.439 7.02-4.032 8.212l-.708-.256-7.93-4.281c2.202-2.988 2.977-6.983 6.132-9.193"/>
  <path fill="#2E3194" d="m510.465 177.749.584.126c1.139 2.138 1.576 4.866 2.454 7.157l.117.299c-6.363 6.581-11.442 14.525-18.011 20.881 7.651-2.212 15.158-5.144 22.72-7.666q1.084 3.571 2.436 7.05c-11.208 4.022-22.664 7.609-33.726 11.998-1.213-2.185-1.765-5.077-2.81-7.417 2.983-3.816 6.223-7.485 9.33-11.204 2.916-3.49 5.753-7.137 8.894-10.425-7.525 2.675-15.303 5.08-22.671 8.145-.574-2.532-1.551-5.017-2.591-7.391 11.032-4.008 22.225-7.587 33.274-11.553M167.826 46.612c.739.041 1.491.079 2.215.243 2.531.575 4.649 2.418 6.006 4.578 1.308 2.081 2.48 5.747 1.559 8.174-.367.966-1.163 1.757-1.377 2.776.866.042 1.913 0 2.735.268 3.051.998 5.395 7.955 7.629 10.439.689.765 1.596 1.33 2.451 1.893l-7.773 4.04c-2.295-2.242-5.076-9.47-7.515-10.25-2.751-.879-8.24 2.836-10.66 4.1l1.957 3.834c1.422 2.866 2.846 5.713 4.056 8.676l-6.685 3.29c-1.538-3.985-3.828-7.86-5.774-11.669q-5.163-10.313-10.527-20.524c7.016-3.469 14.036-8.097 21.703-9.868"/>
  <path fill="#FEFEFE" d="M166.172 54.1c.131.007.264.004.395.022 1.396.19 2.72 1.045 3.427 2.263.623 1.072.92 2.455.516 3.655-1.045 3.103-6.954 5.177-9.699 6.534-.442.228-.183.173-.793.033-1.545-2.326-2.707-5.027-3.971-7.52 3.219-1.8 6.594-3.902 10.125-4.988"/>
  <path fill="#2E3194" d="M42.407 180.288c3.756 1.493 7.69 2.694 11.512 4.015l22.266 7.678q-1.185 3.562-2.493 7.081c-8.546-2.708-16.907-6.082-25.423-8.903 7.863 4.973 15.487 10.323 23.377 15.253-1.058 2.321-1.717 4.933-2.346 7.401q-14.097-1.017-28.15-2.527c2.507 1.082 5.143 1.92 7.716 2.833l18.147 6.313c-.901 2.198-1.659 4.474-2.475 6.706-4.498-1.182-8.902-2.88-13.297-4.405l-20.368-7.041c.99-3.609 2.268-7.178 3.424-10.739 9.024 1.015 18.212 1.031 27.199 2.358-7.338-5.286-14.979-10.254-22.584-15.147 1.082-3.644 2.364-7.243 3.495-10.876m480.742 37.04.41.253c1.021 4.04 1.756 8.216 2.46 12.323.835 4.875 1.321 10.008-1.813 14.251-2.778 3.758-7.702 5.708-12.183 6.425-5.784.924-10.72.598-15.591-2.926-6.199-5.666-6.027-15.86-7.696-23.519 4.084-1.167 8.473-1.722 12.651-2.517q10.893-2.085 21.762-4.29"/>
  <path fill="#FEFEFE" d="m517.871 225.982.676-.004c.188.277.244.326.366.691.215.644.204 1.517.323 2.206.484 2.774 1.575 6.287.135 8.921-1.353 2.472-4.213 3.817-6.812 4.576-3.989 1.165-7.693 1.486-11.425-.557-3.384-2.666-3.814-7.761-4.657-11.714q10.712-1.984 21.394-4.119"/>
  <path fill="#2E3194" d="M249.891 21.181c4.29-.496 8.664.104 12.219 2.722 4.125 3.038 6.12 7.86 6.892 12.786.846 5.396.246 11.417-3.121 15.909-2.959 3.947-7.134 5.423-11.81 6.074-4.403.326-8.549-.18-12.202-2.854-4.182-3.061-6.3-7.917-7.081-12.915-.834-5.34-.032-11.282 3.313-15.682 2.93-3.852 7.15-5.471 11.79-6.04"/>
  <path fill="#FEFEFE" d="M249.464 27.92c2.016-.343 4.193-.333 6.086.504 2.67 1.18 4.342 3.643 5.336 6.3 1.366 3.65 1.664 8.413-.044 11.973-1.169 2.434-3.091 4.07-5.629 4.933-2.344.468-4.514.647-6.757-.384-2.468-1.135-4.099-3.409-5.034-5.896-1.391-3.696-1.783-8.945.001-12.538 1.332-2.682 3.341-3.914 6.041-4.892"/>
  <path fill="#2E3194" d="M40.291 229.247c5.44-.394 10.824.285 15.427 3.42 3.564 2.428 6.062 6.044 6.837 10.316.907 4.999-.03 10.692-3.024 14.86-2.94 4.094-6.982 5.811-11.787 6.611-5.18.515-11.12-.703-15.46-3.655-3.464-2.355-5.994-6.098-6.732-10.237-.892-5.002.212-10.91 3.246-15.035 2.867-3.897 6.871-5.624 11.493-6.28"/>
  <path fill="#FEFEFE" d="M41.562 236.788c3.073-.282 7.047.638 9.706 2.203 2.282 1.343 4.126 3.511 4.749 6.119.575 2.406.085 5.243-1.289 7.304-1.678 2.517-4.219 3.498-7.06 4.019-3.936.095-7.58.075-11.07-2.026-2.254-1.358-3.987-3.47-4.518-6.084q-.094-.469-.14-.944-.047-.476-.045-.954t.052-.954q.05-.475.149-.943t.242-.923q.145-.456.335-.895.19-.438.424-.855.233-.418.508-.809c1.96-2.747 4.794-3.694 7.957-4.258"/>
  <path fill="#2E3194" d="M444.642 90.704c3.633-.217 7.513.937 10.539 2.943 3.975 2.635 7.124 7.166 8.023 11.874.903 4.724-.59 9.368-3.272 13.251-3.531 5.11-8.563 8.319-14.618 9.465-3.825.355-7.562-.507-10.772-2.646-3.908-2.603-7.158-6.771-8.07-11.434-.94-4.807.196-9.494 2.909-13.522 3.724-5.526 8.79-8.654 15.261-9.93"/>
  <path fill="#FEFEFE" d="M446.52 98.003c1.641-.142 3.595.606 4.992 1.419 2.228 1.296 3.79 3.631 4.37 6.121.656 2.815-.26 5.549-1.78 7.923-2.511 3.922-6.087 6.501-10.628 7.512-2.107.1-4.141-.495-5.914-1.641-2.054-1.328-3.415-3.395-3.926-5.778-.587-2.733.167-5.291 1.634-7.61 2.611-4.126 6.49-6.918 11.252-7.946"/>
  <path fill="#2E3194" d="M269.894 67.228q2.533-.096 5.067-.13t5.069-.007 5.067.118 5.063.242q2.53.151 5.056.365 2.525.214 5.045.49 2.519.275 5.031.612t5.016.735q2.503.398 4.995.858t4.973.98 4.948 1.1 4.919 1.223 4.888 1.342q2.436.7 4.854 1.461 2.417.76 4.816 1.58t4.776 1.697 4.734 1.813 4.687 1.929q2.332.993 4.639 2.043t4.588 2.156q2.28 1.105 4.533 2.267t4.477 2.377q2.224 1.217 4.417 2.487t4.355 2.594q2.161 1.323 4.29 2.7 2.129 1.376 4.223 2.803t4.153 2.907q2.058 1.478 4.08 3.007 2.022 1.528 4.006 3.106t3.929 3.203 3.849 3.298 3.767 3.392q1.884 1.722 3.724 3.49t3.637 3.58 3.548 3.67q1.751 1.856 3.455 3.755t3.362 3.84 3.267 3.922 3.168 4.001 3.069 4.078 2.967 4.152q1.458 2.095 2.864 4.225t2.759 4.294 2.652 4.361 2.544 4.425q1.244 2.228 2.433 4.486t2.322 4.545 2.21 4.601 2.095 4.654 1.979 4.704q.961 2.365 1.863 4.752t1.745 4.796 1.626 4.838q.784 2.429 1.507 4.877t1.385 4.912q.663 2.465 1.264 4.945t1.141 4.975q.54 2.494 1.019 5.001t.894 5.025q.417 2.518.771 5.045t.645 5.063.521 5.078.395 5.088.269 5.097q.1 2.538.138 5.078t.014 5.08-.112 5.079q-.087 2.538-.236 5.074t-.361 5.067-.485 5.057-.609 5.043-.733 5.027-.856 5.007q-.459 2.499-.979 4.985t-1.101 4.959-1.223 4.931-1.343 4.899-1.464 4.865q-.761 2.423-1.582 4.827t-1.7 4.787-1.818 4.743-1.933 4.698q-.996 2.337-2.049 4.648-1.053 2.312-2.162 4.597t-2.274 4.542-2.385 4.485-2.495 4.426q-1.274 2.197-2.602 4.362t-2.709 4.297-2.814 4.23-2.916 4.159-3.018 4.086-3.118 4.01q-1.583 1.987-3.215 3.933-1.632 1.947-3.311 3.853t-3.404 3.77q-1.738 1.894-3.523 3.744-1.784 1.85-3.614 3.656-1.83 1.805-3.704 3.565-1.874 1.759-3.791 3.471t-3.876 3.377-3.959 3.28-4.038 3.18-4.117 3.079q-2.077 1.514-4.191 2.977t-4.264 2.871-4.334 2.764-4.401 2.657-4.465 2.546q-2.249 1.246-4.528 2.435t-4.586 2.322-4.643 2.207-4.696 2.091-4.746 1.975q-2.385.957-4.794 1.856-2.408.898-4.838 1.736t-4.88 1.616-4.918 1.495-4.954 1.372-4.987 1.248q-2.501.594-5.016 1.125-2.514.531-5.042 1t-5.065.874-5.086.749q-2.547.343-5.103.622t-5.116.496q-2.561.215-5.127.368-2.566.152-5.135.241l-1.192.041q-2.584.087-5.169.109t-5.169-.02-5.168-.149-5.162-.278q-2.58-.171-5.154-.406t-5.142-.535-5.127-.663-5.109-.79-5.088-.918-5.063-1.045-5.036-1.17q-2.51-.617-5.005-1.296t-4.971-1.42-4.934-1.543q-2.457-.803-4.894-1.666-2.436-.864-4.85-1.788-2.415-.924-4.805-1.908-2.391-.984-4.756-2.028-2.365-1.043-4.704-2.145t-4.648-2.262q-2.311-1.16-4.591-2.377-2.281-1.218-4.531-2.491t-4.466-2.604q-2.217-1.329-4.401-2.714-2.183-1.384-4.331-2.823-2.148-1.438-4.259-2.93-2.112-1.491-4.186-3.035t-4.108-3.139-4.028-3.24-3.947-3.34q-1.952-1.694-3.862-3.437-1.909-1.742-3.775-3.532-1.808-1.719-3.574-3.481t-3.488-3.566q-1.723-1.804-3.401-3.649-1.679-1.846-3.312-3.731-1.634-1.886-3.221-3.81t-3.128-3.886-3.033-3.961-2.937-4.033-2.838-4.103q-1.394-2.069-2.738-4.17t-2.636-4.235-2.534-4.298q-1.24-2.164-2.428-4.358-1.189-2.193-2.323-4.415-1.135-2.222-2.215-4.47-1.081-2.249-2.107-4.522t-1.997-4.572q-.97-2.298-1.885-4.619t-1.774-4.663-1.66-4.705q-.802-2.362-1.546-4.743t-1.43-4.779-1.316-4.813-1.198-4.843-1.08-4.87-.964-4.895-.844-4.917-.725-4.936-.606-4.952-.486-4.966q-.212-2.485-.365-4.975t-.245-4.983c-.213-7.632-.255-15.356.31-22.975q.162-2.197.37-4.39.21-2.193.465-4.381t.557-4.37.65-4.357.743-4.342.835-4.325.927-4.307 1.02-4.286q.531-2.138 1.109-4.263t1.2-4.239q.623-2.113 1.29-4.212.668-2.099 1.38-4.184.713-2.084 1.47-4.153.756-2.069 1.556-4.121t1.645-4.087 1.73-4.051 1.817-4.013 1.903-3.974 1.986-3.932 2.07-3.889q1.055-1.933 2.151-3.843 1.097-1.911 2.234-3.798 1.137-1.886 2.313-3.748t2.394-3.699q1.216-1.836 2.471-3.646 1.255-1.811 2.548-3.594t2.625-3.538 2.699-3.481 2.773-3.423 2.845-3.363q1.441-1.667 2.916-3.302 1.476-1.635 2.986-3.239 1.74-1.861 3.524-3.678 1.785-1.818 3.614-3.591t3.701-3.501 3.786-3.409 3.868-3.315q1.955-1.634 3.949-3.219t4.026-3.121 4.102-3.021 4.175-2.919 4.245-2.816 4.314-2.71q2.173-1.33 4.378-2.604t4.441-2.496q2.236-1.22 4.501-2.386 2.266-1.165 4.559-2.274 2.293-1.11 4.612-2.162t4.665-2.047q2.345-.996 4.713-1.933 2.369-.937 4.76-1.816t4.803-1.699 4.843-1.58 4.88-1.46 4.914-1.34 4.947-1.22q2.48-.579 4.974-1.097t5-.975 5.023-.851q2.516-.395 5.042-.728t5.058-.604q2.533-.271 5.071-.48 2.539-.208 5.082-.354t5.089-.23"/>
  <path fill="#FEFEFE" d="M265.802 74.782q2.385-.133 4.772-.209t4.777-.094q2.388-.02 4.777.018 2.388.038 4.775.132 2.386.095 4.77.246t4.764.36q2.379.207 4.753.472 2.375.264 4.742.585t4.725.697 4.708.81 4.688.921 4.664 1.033 4.638 1.143 4.61 1.253 4.578 1.362 4.545 1.471q2.264.763 4.509 1.579t4.47 1.685 4.429 1.79q2.203.923 4.385 1.897 2.181.973 4.338 1.999 2.158 1.025 4.29 2.102t4.239 2.203 4.185 2.304q2.078 1.176 4.129 2.402t4.071 2.5 4.01 2.596 3.947 2.69q1.958 1.369 3.883 2.784t3.815 2.875 3.746 2.965 3.674 3.053q1.873 1.584 3.706 3.213t3.626 3.303 3.544 3.392 3.459 3.477 3.373 3.561 3.285 3.643 3.194 3.722 3.102 3.8 3.007 3.875 2.911 3.948 2.814 4.018 2.714 4.086q1.332 2.059 2.613 4.151t2.51 4.214q1.229 2.123 2.406 4.275t2.3 4.332q1.124 2.18 2.193 4.388 1.07 2.207 2.085 4.44t1.975 4.49 1.864 4.537 1.752 4.581 1.64 4.624q.791 2.321 1.525 4.662t1.41 4.698 1.294 4.731 1.178 4.762 1.061 4.789.942 4.814.824 4.835q.383 2.423.705 4.855.323 2.431.586 4.87t.466 4.883q.197 2.445.334 4.894t.213 4.901.092 4.904-.03 4.905-.15 4.904q-.106 2.45-.271 4.897t-.393 4.89q-.226 2.442-.512 4.878t-.634 4.865q-.346 2.428-.753 4.847-.406 2.419-.872 4.827t-.992 4.804q-.525 2.396-1.109 4.778-.585 2.383-1.228 4.75t-1.344 4.717-1.46 4.683-1.576 4.645q-.816 2.313-1.69 4.606-.873 2.292-1.802 4.561-.93 2.27-1.915 4.516-.986 2.247-2.026 4.468-1.041 2.221-2.136 4.416t-2.244 4.362-2.351 4.305-2.456 4.246-2.561 4.183-2.663 4.12q-1.357 2.043-2.764 4.052t-2.864 3.983-2.96 3.911-3.057 3.836-3.15 3.76q-1.41 1.651-2.855 3.271t-2.925 3.208-2.994 3.144-3.06 3.08-3.126 3.012q-1.579 1.49-3.19 2.945t-3.253 2.875-3.314 2.805-3.374 2.732-3.431 2.659-3.488 2.585q-1.758 1.273-3.543 2.509t-3.597 2.432-3.647 2.354q-1.837 1.157-3.698 2.275t-3.746 2.194-3.792 2.114-3.837 2.031-3.879 1.948q-1.951.953-3.921 1.864t-3.96 1.78-3.997 1.693q-2.008.826-4.033 1.607-2.025.782-4.067 1.52-2.041.738-4.098 1.432t-4.128 1.343q-2.072.65-4.156 1.254-2.085.605-4.183 1.165-2.097.559-4.206 1.073-2.109.515-4.228.983-2.12.469-4.249.892t-4.267.8c-7.664 1.359-15.387 2.072-23.14 2.671l-.251.022c-8.922.728-18.202.341-27.11-.395q-3.876-.311-7.738-.773-3.861-.462-7.702-1.074-3.84-.611-7.654-1.372t-7.595-1.669q-3.782-.909-7.525-1.964t-7.442-2.255-7.349-2.543q-3.65-1.342-7.245-2.826t-7.129-3.107-7.003-3.382-6.866-3.652-6.718-3.916-6.561-4.174q-3.24-2.152-6.394-4.427-3.154-2.276-6.217-4.672t-6.03-4.911c-39.174-33.103-66.023-82.021-70.329-133.418-.717-8.565-1.172-17.122-.88-25.72q.076-2.088.195-4.175.118-2.086.28-4.169.163-2.084.369-4.163t.455-4.154.542-4.144.629-4.132q.335-2.062.715-4.117.378-2.055.8-4.102t.887-4.084.972-4.064 1.056-4.044q.55-2.016 1.141-4.02.592-2.004 1.225-3.996t1.308-3.969 1.391-3.941q.716-1.963 1.473-3.91t1.555-3.88q.797-1.931 1.635-3.845t1.716-3.811q.878-1.896 1.795-3.774t1.873-3.736 1.951-3.695 2.028-3.654 2.105-3.611q1.07-1.794 2.179-3.566t2.253-3.519 2.326-3.472q1.182-1.723 2.399-3.422 1.217-1.698 2.47-3.371 1.252-1.672 2.539-3.319 1.287-1.646 2.609-3.264 1.321-1.619 2.676-3.21 1.304-1.538 2.639-3.049 1.335-1.512 2.7-2.996 1.364-1.484 2.759-2.941t2.817-2.885q1.424-1.429 2.875-2.828 1.452-1.4 2.931-2.77t2.986-2.711 3.04-2.65 3.092-2.589q1.559-1.278 3.143-2.526t3.193-2.462 3.243-2.398 3.289-2.333q1.657-1.15 3.336-2.266t3.38-2.199q1.701-1.082 3.424-2.13 1.723-1.049 3.466-2.062t3.506-1.992 3.546-1.92 3.583-1.85 3.62-1.777q1.819-.87 3.655-1.704t3.688-1.63q1.852-.798 3.72-1.557 1.868-.76 3.751-1.482t3.779-1.406q1.897-.684 3.807-1.33 1.91-.645 3.833-1.253 1.922-.607 3.857-1.176 1.934-.569 3.88-1.099t3.901-1.02q1.956-.491 3.921-.942c10.942-2.487 21.898-3.834 33.067-4.763"/>
  <path fill="#2E3194" d="M232.687 136.978c1.397.006 2.439.13 3.494 1.127 2.178 2.056 2.64 5.861 2.752 8.704.312 7.852.038 15.83.029 23.695l-.017 44.814.024 29.58c.035 4.12.577 8.404.293 12.494-.175 2.527-.544 5.158-2.377 7.039-1.647 1.69-3.959 2.526-6.267 2.785-3.261.366-6.819-.144-10.115-.207-6.343-.12-12.699-.044-19.043-.045-26.431-.003-52.932-.445-79.347.368-1.734-.016-3.524-.168-5.036-1.108a3.72 3.72 0 0 1-1.684-2.459c-.49-2.45.91-5.185 2.247-7.174 3.419-5.085 10.369-11.618 14.773-16.31l28.305-30.298 42.883-45.899 13.219-14.186c2.65-2.843 5.244-5.814 8.089-8.462 2.344-2.181 4.546-3.832 7.778-4.458m-112.44 138.267c5.656-.187 12.097.434 17.964.438l56.025.004c8.564 0 17.151.156 25.712.015 3.783-.063 7.84-.789 11.587-.268 2.337.325 4.548 1.477 5.924 3.428 1.248 1.769 1.748 3.962 1.87 6.095.16 2.791-.176 5.623-.306 8.414-.119 2.55-.077 5.114-.08 7.667l.008 45.422-.002 35.36c.012 6.323.64 13.265-.345 19.498-.421 2.661-1.451 4.9-3.678 6.49-2.216.384-4.015-.019-5.961-1.139-4.979-2.865-9.262-8.693-13.109-12.908l-11.871-12.989-37.273-40.742-31.679-34.634c-5.197-5.678-10.736-11.235-15.674-17.133-1.681-2.009-3.354-4.466-3.954-7.046-.302-1.299-.298-2.728.512-3.851 1.028-1.427 2.7-1.819 4.33-2.121m266.968 1.234c1.038.229 1.754.609 2.408 1.454 1.149 1.483 1.252 4.098 1.323 5.93.354 9.115-.004 18.386-.007 27.513l-.001 56.284c.001 8.113-.131 16.254.023 24.364.081 4.255.8 8.786.191 13.007-.416 2.882-1.548 5.661-3.977 7.402-1.899 1.362-3.888 1.96-6.192 2.115-5.418.366-11.141-.269-16.601-.274l-42.744-.005-44.09.02c-9.279.009-18.905.644-28.079-.782a17 17 0 0 1-2.518-.846c-1.186-.508-2.273-1.251-2.738-2.504q-.132-.364-.191-.747-.06-.383-.046-.77t.102-.765q.087-.377.245-.731c.9-2.048 2.447-3.828 4.03-5.383 7.455-7.321 15.513-14.206 23.255-21.234l40.011-36.495 47.799-43.581c7.463-6.804 14.76-13.932 22.41-20.513 1.718-1.477 3.236-2.652 5.387-3.459m-12.816-141.86c3.916-.322 8.295-.564 11.823 1.493 2.395 1.398 3.84 3.653 4.544 6.298 1.33 5.005.25 10.851.19 16.005-.081 6.833-.013 13.675-.013 20.509l.004 57.916c.001 9.595.354 19.33-.009 28.909-.068 1.791-.311 3.913-1.27 5.458-.455.732-1.247 1.465-2.161 1.504-1.358.058-4.083-2.154-5.138-3.007-7.27-5.876-14.566-13.157-21.531-19.522l-40.659-37.164-49.003-44.781-14.796-13.495c-3.126-2.846-6.493-5.639-9.321-8.779-1.388-1.541-2.939-3.296-3.048-5.455-.055-1.085.287-2.067 1.051-2.846 1.548-1.576 4.34-2.117 6.468-2.361 6.114-.702 12.241-.602 18.382-.603h20.64l53.281.007c10.181.001 20.388.148 30.566-.086"/>
</svg>
